<?xml version="1.0" encoding="utf-8"?>
<!-- Generator: Adobe Illustrator 21.1.0, SVG Export Plug-In . SVG Version: 6.00 Build 0)  -->
<svg version="1.1" xmlns="http://www.w3.org/2000/svg" xmlns:xlink="http://www.w3.org/1999/xlink" x="0px"
	 y="0px" viewBox="0 0 35 35" enable-background="new 0 0 35 35" xml:space="preserve">
<path fill-rule="evenodd" clip-rule="evenodd" fill="#FFFFFF" d="M15.6,21.2c3.1,0,5.6-2.5,5.6-5.6
	c0-3.1-2.5-5.6-5.6-5.6S10,12.5,10,15.6C10,18.7,12.5,21.2,15.6,21.2z M21.7,20.2l5.3,5.3L25.6,27l-5.3-5.3c-1.3,1-2.9,1.6-4.6,1.6
	c-4.2,0-7.6-3.4-7.6-7.6C8,11.4,11.4,8,15.6,8s7.6,3.4,7.6,7.6C23.2,17.4,22.7,19,21.7,20.2z"/>
</svg>
