<svg width="90" height="42" viewBox="0 0 90 42" fill="none" xmlns="http://www.w3.org/2000/svg">
<path d="M16.8444 8.17753C17.6261 7.8209 18.9606 7.33207 20.6013 6.69827C21.4416 6.42176 22.3601 6.12079 23.3381 5.79612C24.3318 5.5228 25.38 5.21294 26.4712 4.93615C28.6687 4.41665 31.0157 3.91781 33.3329 3.62767C33.911 3.55518 34.4837 3.4613 35.053 3.4021C35.6227 3.35154 36.183 3.30133 36.7341 3.25144C37.8354 3.13004 38.8987 3.11376 39.8912 3.06545C44.4888 2.88885 49.1044 3.21781 53.6157 4.00907L55.308 4.30796L56.98 4.68543C58.1031 4.91369 59.1971 5.23817 60.2948 5.53656C60.8479 5.67695 61.3884 5.85241 61.9291 6.03219L63.5506 6.55848C64.6184 6.93148 65.6776 7.32212 66.7061 7.76574C70.8099 9.51032 74.6339 11.8792 77.166 15.1507C77.7941 15.9633 78.3365 16.8439 78.7671 17.7198C79.1571 18.6275 79.4925 19.5673 79.6714 20.5473C79.8408 21.5234 79.946 22.5234 79.8743 23.5124L79.8597 23.885L79.8124 24.2544C79.7793 24.4978 79.7509 24.7454 79.7133 24.9934C79.5956 25.4735 79.5202 25.9651 79.3416 26.43C79.2958 26.5787 79.2455 26.732 79.1907 26.8897C79.1311 27.0432 79.053 27.1975 78.9844 27.36C78.9159 27.5225 78.8427 27.6851 78.7696 27.8521C78.6824 28.011 78.5905 28.17 78.4986 28.329C78.4067 28.4881 78.3291 28.6596 78.223 28.8105C78.1169 28.9613 78.0155 29.1163 77.9094 29.2672C77.7209 29.5854 77.4698 29.841 77.2658 30.1121C76.4018 31.1596 75.5397 31.8695 75.8473 32.2912C76.008 32.4974 76.3173 32.573 76.7935 32.5085C77.0244 32.47 77.3203 32.4292 77.6081 32.2935C77.9009 32.1662 78.2295 31.9987 78.5845 31.7914C79.9661 30.9289 81.5163 29.0567 82.2334 26.4915C83.085 23.3938 82.8109 20.1285 81.6007 17.1863C80.3387 14.2287 78.1854 11.8091 75.7043 9.84234C73.2142 7.88025 70.3924 6.39291 67.4921 5.17658C66.0442 4.56618 64.5619 4.03482 63.072 3.55137L61.9577 3.18004C61.582 3.06362 61.2068 2.96444 60.8265 2.85251C60.0712 2.64577 59.3239 2.40417 58.5601 2.21936C49.666 -0.0642617 40.2119 -0.458971 31.0937 1.01636C26.5349 1.76267 22.062 2.96451 17.7769 4.61394C15.6263 5.40866 13.5232 6.36182 11.4911 7.48545C9.46869 8.61739 7.53263 9.95826 5.8483 11.5844C2.8113 14.4959 0.731693 18.4636 0.747827 22.7072C0.757829 24.8182 1.40566 26.967 2.57971 28.7596C3.13735 29.6786 3.86281 30.4834 4.60994 31.2442C5.38415 31.9824 6.20738 32.6627 7.08323 33.2545C10.5917 35.6346 14.5994 37.0279 18.5226 38.1342C22.4605 39.2661 26.4871 40.1438 30.5559 40.7734C34.3777 41.3816 38.2455 41.7155 42.1205 41.8588C45.995 41.9891 49.8862 41.9371 53.7533 41.5961C57.6206 41.2638 61.4707 40.7071 65.2707 39.9186L68.1099 39.2811L70.9219 38.5364C72.7993 38.0283 74.6773 37.4076 76.5046 36.6677C79.6456 35.3748 82.7408 33.7072 85.2554 31.2598C87.7666 28.8472 89.5534 25.5301 89.6806 22.0515C89.8503 18.593 88.58 15.2679 86.5463 12.5541C85.5223 11.1932 84.2893 9.96513 82.8735 8.95122C81.4718 7.94114 79.9326 7.11762 78.3209 6.47411C76.808 5.86601 75.0882 5.31723 73.2822 4.95752C71.4806 4.59333 69.6014 4.39631 67.8084 4.40388C66.3264 4.4047 64.3573 4.5526 62.4404 4.8631C60.5183 5.16081 58.649 5.63404 57.2839 6.04604C56.117 6.41638 54.9042 6.80134 53.7649 7.16204C51.1361 7.96513 49.5626 8.65708 48.9016 9.14353C48.2361 9.63446 48.4883 9.93268 49.554 10.1154C50.0216 10.1983 49.7358 10.654 51.0024 10.345C51.0531 10.3346 51.159 10.3092 51.2098 10.2988C55.1131 9.54118 58.7579 8.04425 62.6896 7.43274C65.0924 7.06602 67.5034 6.93265 69.8929 7.1072C72.2781 7.29487 74.6317 7.7649 76.8078 8.60465C77.8959 9.02452 78.936 9.53263 79.9141 10.1252C80.8924 10.722 81.799 11.3949 82.5885 12.1715C84.1812 13.7199 85.4327 15.6006 86.1186 17.6442C86.818 19.6743 86.9792 21.8577 86.4145 23.8766L86.3165 24.2566L86.1765 24.6293C86.0784 24.8751 85.9991 25.1288 85.8916 25.3706C85.6435 25.8423 85.438 26.3342 85.124 26.778C84.8572 27.2461 84.5005 27.6655 84.1675 28.1013C83.9986 28.315 83.7964 28.5083 83.6087 28.7183C83.4256 28.9238 83.233 29.1253 83.0212 29.3102L82.4004 29.8818L81.7318 30.4161C81.5154 30.6012 81.2797 30.7653 81.0393 30.9296C80.7989 31.0939 80.5727 31.2664 80.3274 31.4222C79.3461 32.0456 78.3214 32.6228 77.2431 33.1328C75.0962 34.161 72.8019 34.9651 70.4563 35.6327C64.6372 37.2545 58.6429 38.3937 52.5824 38.8473C49.5584 39.1193 46.517 39.1627 43.4823 39.1323C41.9657 39.0738 40.4503 39.0498 38.9404 38.9175C38.1857 38.8578 37.4271 38.8199 36.6763 38.7384L34.4234 38.4856C33.5983 38.4068 32.7845 38.254 31.967 38.1274C31.1492 37.9921 30.3322 37.8783 29.5222 37.7038C28.7085 37.551 27.8947 37.3983 27.0761 37.2414C26.2616 37.067 25.4471 36.8971 24.6241 36.7447L24.6802 36.7557C23.8237 36.5785 22.9885 36.3442 22.1443 36.119C21.3045 35.8893 20.4563 35.6816 19.6337 35.4124L17.1443 34.6487C16.331 34.3791 15.5268 34.1048 14.7355 33.7998C11.7592 32.6684 8.89126 31.187 6.80618 29.1197C5.7798 28.0833 4.98094 26.9133 4.49408 25.6327C4.22543 25.0019 4.08579 24.3407 3.99687 23.669C3.90331 22.9974 3.91135 22.3091 3.97509 21.6189C4.25786 18.8573 5.66252 16.1596 7.68305 14.0586C9.73003 11.9177 12.3519 10.2669 15.1053 8.91859C15.5668 8.69883 16.1808 8.46073 16.8444 8.17753Z" fill="#FFB13D"/>
</svg>
